<?xml version="1.0" encoding="utf-8"?>
<!DOCTYPE svg PUBLIC "-//W3C//DTD SVG 1.0//EN" "http://www.w3.org/TR/2001/REC-SVG-20010904/DTD/svg10.dtd">
<svg version="1.0" xmlns="http://www.w3.org/2000/svg" width="439px" height="334px" viewBox="0 0 439 334" preserveAspectRatio="xMidYMid meet">
 <g fill="#fcd71a">
  <path d="M184.50 238.50 c0 -0.25 -1.15 -0.50 -2.55 -0.50 -4.80 0 -35.45 -8.85 -42.70 -12.30 -2.25 -1.10 -2.65 -1.55 -3.85 -4.45 -2.40 -5.50 -2.90 -8.40 -2.90 -16 0 -8.25 1.20 -14.30 4.45 -23 1.15 -3 2.05 -6.30 2.05 -7.35 0 -1.85 0.05 -1.90 1.75 -1.90 1.20 0 1.75 0.25 1.75 0.75 0 0.40 0.35 0.75 0.75 0.75 0.45 0 1.65 0.55 2.70 1.20 3.25 2.05 12.05 6.35 16.70 8.10 6.05 2.30 15.20 4.60 22.25 5.50 3.20 0.40 6.10 1 6.45 1.30 0.45 0.35 0.65 0.35 0.65 -0.05 0 -0.90 2.95 -0.60 4.05 0.40 1.30 1.20 4.60 2.05 7.90 2.05 1.40 0 2.55 0.20 2.55 0.45 0 0.75 15.40 2.55 22.50 2.55 8.30 0 24.95 -2.40 34.50 -4.95 2.05 -0.55 4.70 -1.05 5.90 -1.05 2.05 0 2.10 0.05 2.10 1.70 0 1.30 -0.35 2 -1.45 2.90 -0.75 0.65 -3.75 3.20 -6.60 5.65 -9.55 8.30 -28.65 23.25 -29.70 23.25 -0.60 0 -3.85 1.15 -7.30 2.50 -10.55 4.30 -21.75 7.60 -31.45 9.25 -7.30 1.25 -7 1.15 -7 2.50 0 1.10 -0.20 1.25 -1.75 1.25 -0.95 0 -1.75 -0.20 -1.75 -0.50z"/>
  <path d="M177.25 185.85 c-2.70 -1.30 -7.20 -5.80 -8.70 -8.80 -1.80 -3.50 -2.55 -7.10 -2.55 -12.25 0 -4.35 0.30 -6.25 2.25 -13.60 4.20 -16.25 9.25 -30.20 15.35 -42.45 8.45 -16.85 16 -27.55 27.05 -38 6.05 -5.75 6.05 -5.75 16.10 -5.75 10.85 0 13.25 0.30 22.75 2.55 7.05 1.65 6.45 1.45 13.50 4.85 13.50 6.50 24.70 16.40 32.85 29.05 3.25 4.95 3.95 7.55 2.40 8.40 -0.40 0.25 -1.25 2.10 -1.85 4.15 -0.60 2.05 -1.40 4.05 -1.75 4.40 -0.35 0.35 -0.65 1.10 -0.65 1.65 0 0.55 -0.35 1.35 -0.75 1.80 -0.45 0.40 -0.95 1.40 -1.10 2.20 -0.15 0.75 -0.55 1.50 -0.95 1.65 -0.40 0.15 -0.70 0.75 -0.70 1.30 0 0.55 -0.25 1 -0.50 1 -0.30 0 -0.95 1 -1.50 2.25 -0.55 1.25 -1.20 2.25 -1.50 2.25 -0.25 0 -0.50 0.25 -0.50 0.55 0 0.70 -9.60 10.45 -10.30 10.45 -0.35 0 -0.70 0.35 -0.90 0.75 -0.15 0.40 -0.60 0.75 -1.05 0.75 -0.40 0 -0.75 0.20 -0.75 0.40 0 0.70 -8.10 4.90 -12.10 6.30 -3.75 1.25 -11.30 2.80 -13.70 2.80 -1.05 0 -1.20 -0.25 -1.20 -1.85 0.05 -1.05 0.35 -2.80 0.75 -3.90 0.40 -1.05 0.60 -2.05 0.55 -2.15 -0.25 -0.20 -4.15 5.30 -5.60 7.80 -0.75 1.30 -1.25 1.60 -2.55 1.60 -1.15 0 -1.65 -0.25 -1.65 -0.75 0 -0.55 -0.65 -0.75 -2.60 -0.75 -1.45 0 -2.90 -0.20 -3.20 -0.40 -1.05 -0.65 -1.25 -5.65 -0.45 -10.35 0.45 -2.45 1 -4.60 1.30 -4.75 0.25 -0.20 0.60 -1.50 0.80 -2.90 0.15 -1.45 0.45 -2.60 0.65 -2.60 0.30 0 1.60 -4.10 2.25 -7.20 0.15 -0.75 0.65 -1.75 1 -2.15 0.40 -0.40 0.90 -1.60 1.05 -2.70 0.20 -1.05 0.50 -1.95 0.75 -1.95 0.25 0 0.45 -0.55 0.45 -1.15 0 -0.65 0.45 -1.70 1 -2.35 0.55 -0.65 1 -1.55 1 -2.10 0 -1.20 2.95 -7.05 3.80 -7.55 0.35 -0.20 0.90 -1.30 1.20 -2.40 0.30 -1.10 1 -2.40 1.55 -2.85 0.50 -0.45 0.95 -1.20 0.95 -1.65 0 -0.45 0.35 -0.95 0.75 -1.15 0.40 -0.15 0.75 -0.65 0.75 -1.15 0 -0.85 1.70 -4.05 2.45 -4.65 0.80 -0.65 1.60 -2.65 1.15 -2.95 -0.25 -0.15 -0.55 -0.70 -0.65 -1.15 -0.35 -1.55 -7.80 4.80 -13.65 11.60 -4 4.65 -9.45 13.85 -13.35 22.45 -2.75 6.20 -7.80 21.10 -9.20 27.05 -0.90 4.05 -1.80 6.50 -2.30 6.50 -0.20 0 -0.95 0.95 -1.60 2.15 -0.70 1.20 -2.30 3.05 -3.50 4.15 -1.20 1.05 -2.55 2.55 -3.05 3.35 -0.50 0.75 -1.25 1.35 -1.60 1.35 -0.40 0 -0.70 0.25 -0.70 0.55 0 0.25 -1.50 1.20 -3.35 2.10 -3.20 1.50 -3.80 1.60 -9.85 1.75 -8.95 0.25 -12.85 -0.85 -17.50 -5 -2.45 -2.15 -2.45 -2.15 -2.15 0.25 0.80 5.65 5.90 13.10 11 15.95 1.55 0.90 1.85 1.35 1.85 2.75 0 1.65 0 1.65 -2.60 1.65 -1.70 0 -3.55 -0.40 -5.15 -1.15z"/>
  <path d="M271.65 175.75 c0.20 -1.85 0.65 -3.90 1.05 -4.50 0.70 -1.05 5.70 -4.15 11.75 -7.35 2.05 -1.05 3.40 -1.40 5.50 -1.40 2.80 0 2.80 0 4.95 3.70 1.25 2.20 2.10 4.30 2.10 5.20 0 1.45 -0.15 1.60 -1.65 1.60 -0.90 0 -1.85 -0.20 -2.15 -0.45 -1.15 -1.10 -9.55 -0.50 -10.05 0.70 -0.10 0.35 -0.75 0.80 -1.45 0.95 -0.65 0.20 -1.20 0.55 -1.20 0.80 0 0.30 -0.25 0.50 -0.60 0.50 -0.35 0 -1.35 0.70 -2.20 1.55 -1.20 1.15 -2.25 1.65 -4 1.85 -2.35 0.25 -2.35 0.25 -2.05 -3.15z"/>
  <path d="M158.65 144.25 c-0.35 -0.40 -0.65 -1 -0.65 -1.40 0 -0.35 -1.30 -1.20 -2.85 -1.85 -3.10 -1.30 -6.55 -4.15 -8.20 -6.80 -0.60 -1 -1.45 -1.70 -2 -1.70 -0.75 0 -0.95 -0.35 -0.95 -1.75 0 -0.95 0.25 -1.75 0.50 -1.75 0.30 0 0.50 -0.50 0.50 -1.15 0 -1.45 2.90 -8.65 5.85 -14.60 7.30 -14.65 16.65 -26.40 28.90 -36.10 5.35 -4.25 7.85 -5.85 14.05 -8.90 5.20 -2.55 8.15 -3.75 9.40 -3.75 1.70 0 1.80 0.10 1.80 1.65 0 1.40 -0.40 1.95 -3.30 4.10 -1.80 1.40 -3.50 2.90 -3.75 3.40 -0.25 0.45 -0.75 0.85 -1.10 0.85 -0.85 0 -6.35 5.85 -9.80 10.45 -1.50 1.95 -2.90 3.55 -3.15 3.55 -0.20 0 -0.40 0.25 -0.40 0.55 0 0.30 -1.20 2.50 -2.70 4.95 -3.20 5.10 -6.45 11.45 -9.25 18.05 -2.80 6.60 -7.65 23.60 -8.90 31.35 -0.25 1.40 -0.45 1.60 -1.85 1.60 -0.85 -0.05 -1.85 -0.35 -2.15 -0.75z"/>
 </g>
 <g fill="#ec9e1b">
  <path d="M198.50 241.15 c-0.95 -0.10 -4.35 -0.65 -7.50 -1.20 -3.15 -0.55 -6.60 -1.15 -7.60 -1.30 -2.60 -0.35 -2.65 -1.95 -0.15 -2.45 0.95 -0.15 1.75 -0.50 1.75 -0.70 0 -0.20 2.55 -0.75 5.65 -1.25 6.05 -0.95 18.80 -4.05 24.55 -6 1.95 -0.65 6.35 -2.35 9.75 -3.75 3.45 -1.35 6.70 -2.50 7.25 -2.50 0.60 0 2.65 -1.25 4.55 -2.80 1.95 -1.55 5.20 -3.65 7.30 -4.75 20.60 -10.35 43.85 -27.05 57.30 -41.15 3.65 -3.80 4.90 -5.55 7.05 -9.85 2.55 -5.10 4.10 -10.45 4.10 -14.25 0 -1.60 0.10 -1.70 1.75 -1.70 2.40 0 2.60 0.65 3 10.05 0.30 6.20 0.20 8.55 -0.45 12.05 -2.10 11.15 -5.30 16.90 -14.55 26.15 -3.55 3.60 -7.85 7.45 -9.50 8.60 -36 25.30 -50.55 33.10 -67.85 36.40 -3.80 0.70 -21.35 0.95 -26.40 0.40z"/>
  <path d="M133.45 222.40 c-1.20 -0.85 -3.45 -2.85 -5 -4.45 -4 -4.15 -4.70 -6.55 -4.65 -16.20 0 -10.30 1.85 -17.55 7.55 -30.35 1.25 -2.85 1.30 -2.90 3.40 -2.90 1.85 0 2.50 0.35 5.40 2.90 2.15 1.85 3.30 3.25 3.35 3.95 0 0.80 -0.25 1 -0.95 0.80 -0.75 -0.20 -1.20 0.45 -2.55 3.70 -4.20 10.10 -6 17.65 -6 25.55 0 3.25 0.30 6.55 0.75 8.35 1 3.70 3.20 8.80 4.25 9.60 0.60 0.50 0.40 0.60 -1.30 0.65 -1.50 0 -2.60 -0.40 -4.25 -1.60z"/>
  <path d="M210.95 196.30 c-0.10 -0.10 -1.45 -0.35 -2.95 -0.50 -1.50 -0.20 -2.85 -0.55 -3 -0.75 -0.15 -0.25 -0.90 -0.35 -1.75 -0.25 -1.35 0.15 -6.85 -1 -7.90 -1.65 -0.25 -0.15 -1.45 -0.30 -2.65 -0.40 -1.20 -0.10 -2.55 -0.40 -2.95 -0.75 -0.40 -0.35 -0.75 -0.50 -0.75 -0.35 0 0.15 -0.65 0.05 -1.50 -0.20 -0.80 -0.30 -1.50 -0.90 -1.50 -1.30 0 -0.60 0.55 -0.70 2.90 -0.45 1.55 0.15 7.35 0.35 12.85 0.50 9.55 0.20 9.70 0.20 4.15 -0.30 -5.90 -0.50 -5.90 -0.50 -5.90 -2.10 0 -1.45 0.20 -1.65 3.25 -2.75 3.75 -1.35 8.20 -4.40 10.90 -7.60 3.50 -4 5.15 -8.30 8.10 -20.95 6.95 -29.55 14.25 -48.65 23.40 -61.25 2.65 -3.65 7.75 -9.25 8.50 -9.25 0.20 0 0.90 -0.45 1.50 -1.05 1.55 -1.45 4.75 -3.05 5.75 -2.85 0.45 0.10 1.10 -0.15 1.40 -0.55 0.30 -0.40 0.65 -0.50 0.85 -0.20 0.15 0.25 -0.50 1.30 -1.50 2.30 -0.95 1 -1.55 1.85 -1.35 1.85 0.25 0 0.10 0.25 -0.30 0.50 -0.40 0.25 -0.75 0.65 -0.75 0.85 0 0.20 -0.50 0.90 -1.15 1.55 -0.60 0.60 -1 1.35 -0.85 1.60 0.20 0.30 -0.05 0.65 -0.45 0.80 -0.45 0.15 -0.70 0.50 -0.55 0.70 0.15 0.20 -0.10 0.55 -0.55 0.70 -0.40 0.15 -0.60 0.50 -0.45 0.80 0.15 0.30 -0.05 0.65 -0.45 0.80 -0.45 0.15 -0.70 0.50 -0.55 0.70 0.15 0.20 -0.10 0.55 -0.55 0.70 -0.40 0.15 -0.60 0.50 -0.45 0.80 0.15 0.25 0.05 0.50 -0.25 0.50 -0.30 0 -0.40 0.25 -0.25 0.50 0.15 0.30 0.05 0.50 -0.25 0.50 -0.30 0 -0.45 0.20 -0.25 0.50 0.15 0.25 -0.10 0.90 -0.60 1.40 -0.50 0.50 -0.95 1.25 -1.05 1.65 -0.10 0.40 -0.50 0.95 -0.85 1.25 -0.40 0.30 -0.60 0.70 -0.40 0.85 0.15 0.20 0.05 0.35 -0.30 0.35 -0.35 0 -0.45 0.25 -0.30 0.50 0.15 0.30 0.05 0.50 -0.30 0.50 -0.35 0 -0.50 0.15 -0.30 0.30 0.40 0.45 -1.05 3.20 -1.70 3.20 -0.30 0 -0.35 0.25 -0.20 0.50 0.15 0.30 0.05 0.50 -0.25 0.50 -0.30 0 -0.40 0.25 -0.25 0.50 0.15 0.30 0.05 0.50 -0.25 0.50 -0.30 0 -0.40 0.20 -0.25 0.50 0.15 0.25 0.05 0.50 -0.25 0.50 -0.30 0 -0.40 0.25 -0.25 0.50 0.15 0.30 0.05 0.50 -0.25 0.50 -0.30 0 -0.40 0.25 -0.25 0.50 0.15 0.30 0.05 0.50 -0.25 0.50 -0.30 0 -0.40 0.25 -0.25 0.50 0.15 0.30 0.05 0.50 -0.25 0.50 -0.30 0 -0.45 0.20 -0.25 0.45 0.35 0.60 -0.75 3.05 -1.35 3.05 -0.25 0 -0.30 0.20 -0.15 0.50 0.15 0.25 0.10 0.50 -0.20 0.50 -0.30 0 -0.40 0.30 -0.25 0.70 0.15 0.35 -0.05 1 -0.40 1.35 -0.35 0.40 -0.65 0.95 -0.65 1.20 -0.05 1.05 -1.35 4.25 -1.75 4.25 -0.25 0 -0.35 0.35 -0.20 0.75 0.20 0.40 0.05 0.75 -0.30 0.75 -0.30 0 -0.45 0.20 -0.30 0.45 0.35 0.50 -1.70 6.75 -2.30 6.95 -0.20 0.10 -0.30 0.40 -0.15 0.60 0.35 0.55 -0.85 5 -1.30 5 -0.20 0 -0.25 0.45 -0.10 1 0.15 0.55 0.05 1 -0.20 1 -0.30 0 -0.40 0.55 -0.25 1.25 0.10 0.70 0 1.25 -0.25 1.25 -0.25 0 -0.40 0.65 -0.25 1.45 0.10 0.80 0 1.55 -0.25 1.70 -0.75 0.50 -0.15 4.30 0.80 4.55 2.05 0.60 6.65 0.45 7.10 -0.25 0.30 -0.50 0.45 -0.25 0.45 0.95 0 1 -1.15 3.90 -3 7.65 -3.45 6.85 -6.75 15.10 -8.70 21.70 -0.75 2.50 -1.45 4.80 -1.60 5.20 -0.15 0.50 0.20 0.60 1.40 0.40 11.70 -2.05 10.70 -1.35 11.05 -7.75 0.50 -8.65 3.35 -22.95 5.70 -28.20 0.95 -2.25 2.45 -2.65 1.95 -0.50 -0.25 0.90 -0.20 1.10 0.15 0.65 0.25 -0.45 0.90 -0.60 1.60 -0.40 1.40 0.35 6.35 -0.70 11 -2.40 3.65 -1.30 10.95 -5.20 10.95 -5.85 0 -0.20 0.35 -0.40 0.75 -0.40 0.45 0 0.90 -0.35 1.05 -0.75 0.20 -0.40 0.55 -0.75 0.90 -0.75 0.70 0 10.10 -9.55 9.95 -10.10 -0.10 -0.20 0.30 -0.60 0.85 -0.90 0.55 -0.30 0.90 -0.75 0.75 -1.05 -0.20 -0.25 -0.05 -0.45 0.25 -0.45 0.30 0 0.45 -0.20 0.30 -0.45 -0.15 -0.25 0.20 -1 0.85 -1.65 0.60 -0.70 1.15 -1.60 1.25 -1.95 0.10 -0.40 0.50 -0.95 0.90 -1.30 0.45 -0.30 0.75 -0.70 0.70 -0.90 -0.20 -0.55 1.10 -3.25 1.55 -3.25 0.25 0 0.40 -0.15 0.40 -0.35 -0.20 -1.10 0.15 -2.15 0.80 -2.85 0.45 -0.40 0.75 -0.90 0.75 -1.05 -0.10 -1 2.20 -7.20 2.80 -7.45 0.40 -0.15 0.55 -0.60 0.35 -1.10 -0.20 -0.60 -0.05 -0.75 0.85 -0.60 0.80 0.10 1.55 0.90 2.40 2.40 1.05 2.05 1.15 2.65 0.85 6.20 -0.95 11.30 -5.35 20.25 -14.70 30 -4.30 4.45 -4.30 4.45 -1.15 2.75 6.30 -3.40 13.10 -9.70 18.05 -16.80 0.90 -1.30 1.45 -1.65 2.75 -1.65 1.60 0 1.70 0.15 2.30 2.40 1.90 7.20 1.45 19.60 -1 27.15 -2.35 7.05 -6.30 12.95 -8.75 12.95 -0.85 0 -1.25 0.30 -1.35 1.10 -0.30 2.20 -14.80 9.15 -30.15 14.45 -13.30 4.60 -27.10 7.55 -39.20 8.45 -6.40 0.50 -16.70 0.65 -17.10 0.30z m65.35 -20.85 c0.75 -0.80 1.70 -1.45 2.05 -1.45 0.40 0 0.60 -0.20 0.45 -0.45 -0.20 -0.25 0.35 -0.60 1.20 -0.80 0.85 -0.20 1.40 -0.55 1.25 -0.80 -0.15 -0.20 0.20 -0.55 0.85 -0.65 0.65 -0.15 2.30 -0.50 3.75 -0.80 2.90 -0.65 7.95 -0.30 9.10 0.65 0.60 0.50 0.65 0.45 0.15 -0.50 -0.35 -0.60 -0.45 -1.40 -0.30 -1.80 0.50 -1.40 -0.85 -5 -2.60 -6.75 -1.55 -1.55 -1.90 -1.65 -3.60 -1.35 -3.70 0.65 -13.95 7.20 -15.65 9.95 -1.15 1.90 -1.20 3.30 -0.15 3.30 0.65 0 0.75 0.35 0.50 1.70 -0.30 1.50 -0.20 1.70 0.65 1.45 0.50 -0.15 1.60 -0.90 2.35 -1.70z"/>
  <path d="M166 182.85 c-3.15 -1.15 -7.30 -2.90 -9.25 -3.90 -3.50 -1.75 -3.50 -1.75 -3.65 -7.25 -0.15 -5.40 0.70 -12.15 2.20 -17.80 0.35 -1.45 0.60 -2.70 0.50 -2.80 -0.15 -0.15 -4.20 7.80 -5.40 10.65 -0.25 0.55 -0.95 2.90 -1.60 5.25 -1.15 4.20 -1.15 4.25 -2.85 4.40 -1.40 0.10 -2.20 -0.35 -4.80 -2.50 -3.15 -2.65 -3.15 -2.65 -3.15 -6 0 -10.60 5.30 -35.40 7.60 -35.40 0.55 0 0.90 0.40 0.90 1 0 1.35 2.85 5.75 5.05 7.85 0.95 0.90 3.30 2.35 5.20 3.25 1.95 0.90 3.65 1.70 3.80 1.80 0.45 0.20 1.30 -2.25 1.95 -5.65 1.85 -9.80 6.90 -24.60 11.55 -33.85 1.10 -2.15 1.80 -3.90 1.60 -3.90 -0.25 0 -0.15 -0.20 0.15 -0.40 0.65 -0.40 6.20 -9.30 6.20 -9.95 0 -0.20 0.45 -0.70 1.05 -1.05 0.60 -0.35 0.90 -0.80 0.75 -0.95 -0.15 -0.15 0.25 -0.70 0.85 -1.20 0.60 -0.50 0.95 -0.90 0.75 -0.95 -0.15 0 0.35 -0.75 1.15 -1.60 6.20 -6.85 8.25 -8.90 8.80 -8.90 0.35 0 0.85 -0.40 1.10 -0.85 0.25 -0.50 1.95 -2 3.75 -3.35 1.80 -1.40 3.20 -2.60 3.10 -2.70 -0.10 -0.10 -1.35 0.45 -2.80 1.15 -1.45 0.70 -2.70 1.20 -2.80 1.10 -0.15 -0.10 1 -1.15 2.50 -2.30 2.30 -1.70 3.15 -2.05 5.05 -2.05 2.25 0 2.25 0 2.25 1.90 0 1.50 -0.40 2.20 -2.05 3.85 -2.75 2.70 -8.70 10.15 -11.80 14.75 -12.45 18.70 -20.90 39.80 -25.90 64.60 -2.40 12.10 -2.65 15.80 -1.25 19.90 1.40 4.25 2.90 6.80 6 10.15 1.90 2.05 2.50 3.15 2.50 4.30 0 1.40 -0.15 1.55 -1.60 1.55 -0.90 -0.05 -4.25 -1 -7.40 -2.15z"/>
  <path d="M186.75 182.25 c-8.90 -2.20 -16 -10.30 -16.35 -18.80 -0.10 -1.75 0.10 -2.65 0.60 -2.95 0.50 -0.30 0.55 -0.50 0.15 -0.50 -0.35 0 -0.50 -0.35 -0.35 -0.75 0.25 -0.55 0.60 -0.20 1.30 1.25 1.45 2.85 5.85 6.75 8.90 7.75 0.15 0.05 0.90 0.35 1.65 0.65 0.80 0.35 1.60 0.50 1.85 0.35 0.25 -0.15 0.60 -0.05 0.75 0.25 0.20 0.35 2.35 0.45 5.95 0.35 5.05 -0.15 6 -0.35 9 -1.75 1.90 -0.90 3.25 -1.80 3.05 -2.10 -0.15 -0.25 0.15 -0.50 0.65 -0.50 0.55 0 1.40 -0.60 1.90 -1.35 0.50 -0.80 1.85 -2.30 3.05 -3.35 1.20 -1.10 2.80 -2.95 3.50 -4.15 0.65 -1.20 1.40 -2.15 1.60 -2.15 0.15 0 0.60 -0.65 0.95 -1.50 0.40 -0.80 0.90 -1.50 1.20 -1.50 1.40 0 -2.20 17.65 -4.40 21.40 -2.90 4.90 -7.65 8.40 -13.10 9.55 -3.35 0.70 -8.60 0.60 -11.85 -0.20z"/>
 </g>
 <g fill="#7d7d7d">
  <path d="M214.90 283.05 c-0.15 -0.50 -10.40 -1 -10.40 -0.50 0 0.15 -0.65 0.20 -1.50 0.05 -0.80 -0.10 -1.50 -0.40 -1.50 -0.65 0 -0.25 -0.35 -0.45 -0.75 -0.45 -0.40 0 -0.90 -0.75 -1.15 -1.85 -1 -4.10 -4.05 -17 -4.35 -18.50 -0.20 -0.90 -0.50 -1.65 -0.75 -1.65 -0.20 0 -0.90 1.35 -1.50 3 -1.10 2.95 -1.10 2.95 -3.20 2.85 -1.10 -0.05 -2.20 -0.30 -2.40 -0.55 -0.15 -0.25 -1 -0.45 -1.85 -0.45 -0.85 0 -1.55 -0.25 -1.55 -0.50 0 -0.25 -0.40 -0.35 -0.90 -0.25 -0.50 0.15 -1.15 -0.05 -1.50 -0.45 -0.35 -0.35 -1.05 -0.65 -1.60 -0.65 -0.50 0 -1.10 -0.20 -1.25 -0.50 -0.70 -1.15 -3.20 -0.50 -4.95 1.25 -1 0.95 -1.95 1.75 -2.15 1.75 -0.20 0 -1.90 1.50 -3.80 3.40 -2.30 2.25 -3.50 3.15 -3.75 2.75 -0.20 -0.35 -1.85 -1.30 -3.60 -2.10 -5.55 -2.55 -14.90 -8.30 -20.65 -12.75 -1.15 -0.90 -1.15 -1.10 1.10 -8.45 2.15 -7.15 2.60 -5.90 -4.05 -12.15 -0.90 -0.85 -2.75 -2.90 -4.15 -4.60 -3.50 -4.30 -4.85 -5.25 -6.60 -4.55 -0.75 0.25 -1.90 0.35 -2.55 0.20 -0.75 -0.20 -1.40 -0.05 -1.80 0.40 -0.30 0.40 -2.10 1.10 -3.95 1.55 -3.20 0.75 -3.45 0.75 -4.60 -0.05 -0.65 -0.50 -1.25 -1.10 -1.25 -1.30 0 -0.25 -0.65 -1.35 -1.45 -2.55 -1.20 -1.75 -7.90 -13.40 -9.05 -15.80 -2.30 -4.65 -2.65 -6 -2 -7.25 0.35 -0.70 0.90 -1.25 1.15 -1.25 0.60 0 14.90 -14.10 14.60 -14.40 -0.10 -0.10 -1.70 0.05 -3.50 0.40 -1.80 0.35 -3.45 0.50 -3.60 0.30 -0.55 -0.55 -3.65 -12.65 -3.65 -14.40 0 -0.85 -0.30 -1.45 -0.85 -1.60 -0.50 -0.10 -3.60 -0.95 -6.90 -1.85 -3.30 -0.90 -6.25 -1.85 -6.60 -2.15 -0.50 -0.45 -0.90 -9.30 -0.70 -14.40 0.05 -1.10 1.35 -1.20 1.75 -0.15 0.25 0.65 2.50 0.75 16.30 0.75 12.40 0 16.05 0.15 16.20 0.65 0.10 0.30 0.45 3.90 0.75 7.90 0.40 5.30 1.05 9.25 2.35 14.45 1 3.95 1.65 7.65 1.50 8.20 -0.10 0.60 -0.85 3.20 -1.55 5.80 -1.70 6.20 -2 16.70 -0.55 20.75 1.60 4.35 6.35 9.05 12.60 12.50 2.80 1.50 15.05 5.80 23.70 8.25 2.05 0.60 5.55 2.20 7.75 3.50 8.95 5.35 14.90 7.90 24.35 10.50 7.70 2.15 13.30 3 19.15 3 3.65 0 5.30 0.20 5.70 0.65 0.35 0.45 0.60 5.80 0.65 16.40 0.15 15.70 0.15 15.70 1.30 15.85 0.70 0.10 1.10 0.50 1.10 1.15 0 0.85 -0.40 0.95 -3.70 0.95 -2.05 0 -3.80 -0.20 -3.90 -0.45z"/>
  <path d="M281 265.55 c0 -1 0.25 -1.55 0.70 -1.55 0.35 0 0.80 -0.45 0.95 -1 0.20 -0.85 0.70 -1 2.80 -1 1.40 0 2.55 0.20 2.55 0.45 0 0.35 -5.20 3.85 -6.60 4.45 -0.25 0.10 -0.40 -0.50 -0.40 -1.35z"/>
  <path d="M311.90 231.90 c-6.35 -1.90 -6.90 -2.15 -6.90 -3.20 0 -1 0.25 -1.20 1.65 -1.20 1.05 0 1.90 0.35 2.35 1 0.55 0.80 1.30 1 3.35 1 1.45 0 2.65 0.25 2.65 0.50 0 0.30 0.70 0.50 1.55 0.50 1.75 0 2.95 1 2.95 2.45 0 1.25 0.70 1.35 -7.60 -1.05z"/>
  <path d="M345.50 157 c0 -1.05 0 -1.05 -15 -0.90 -15 0.15 -15 0.15 -15 -2.20 0 -1.30 -0.25 -2.95 -0.60 -3.75 -0.60 -1.40 -0.60 -1.40 -0.90 0.60 -0.20 1.10 -0.40 1.70 -0.45 1.40 0 -0.35 -0.40 -0.65 -0.75 -0.65 -0.60 0 -0.75 -0.75 -0.70 -3.35 0 -4.65 -0.50 -8.45 -1.95 -14.65 -3 -12.80 -8.45 -24.25 -16.70 -35.25 -3.65 -4.90 -13.50 -14.95 -16.70 -17.10 -1.10 -0.70 -3 -2.15 -4.25 -3.15 -2.10 -1.70 -12.15 -8 -12.75 -8 -0.15 0 -1.90 -0.75 -3.90 -1.70 -4.10 -1.90 -12.60 -4.90 -17.40 -6.05 -1.75 -0.45 -5.80 -1 -8.95 -1.30 -13.80 -1.25 -12.25 0.90 -12.40 -17.30 -0.10 -13.90 -0.20 -16.15 -0.85 -16.15 -0.40 0 -0.75 -0.45 -0.75 -1 0 -0.95 0.35 -1 6.25 -1 3.65 0 6.25 0.20 6.25 0.50 0 0.25 1.95 0.55 4.35 0.60 4.40 0.15 4.40 0.15 6.95 11.25 1.40 6.15 2.65 11.30 2.85 11.45 0.30 0.30 1.65 -2.55 2.15 -4.65 0.40 -1.60 1.55 -2.40 2.35 -1.70 0.40 0.30 0.85 0.40 1 0.20 0.20 -0.15 0.35 -0.05 0.35 0.25 0 0.30 0.35 0.45 0.75 0.30 0.40 -0.20 0.75 -0.05 0.75 0.30 0 0.35 0.35 0.50 0.75 0.35 0.40 -0.20 0.85 -0.10 1.05 0.20 0.15 0.30 0.60 0.40 1 0.25 0.40 -0.15 0.70 -0.05 0.70 0.25 0 0.30 0.35 0.45 0.75 0.25 0.40 -0.15 0.75 -0.05 0.75 0.25 0 0.30 0.35 0.45 0.75 0.25 0.40 -0.15 0.75 -0.05 0.75 0.25 0 0.30 0.35 0.45 0.75 0.25 0.40 -0.15 0.75 -0.05 0.75 0.25 0 0.30 0.35 0.45 0.75 0.25 0.40 -0.15 0.75 -0.05 0.75 0.20 0 1.50 2.35 -0.05 6.75 -4.50 2.75 -2.75 5.35 -5 5.85 -5 2.55 0 19.60 10 24.30 14.25 2.20 2 2.30 1.30 -1.20 12.90 -0.85 2.95 -0.85 2.95 3.10 6.80 2.15 2.10 5.40 5.45 7.15 7.45 2.25 2.55 3.55 3.60 4.35 3.60 0.65 0 3.65 -0.70 6.70 -1.50 3.05 -0.80 5.85 -1.50 6.20 -1.50 0.40 0 1.45 1.05 2.40 2.40 2.15 3 6.40 10 6.40 10.55 0 0.20 0.45 0.80 1 1.30 0.50 0.45 0.90 1 0.90 1.20 -0.15 0.45 1.65 4.20 2.50 5.20 0.40 0.45 0.60 0.85 0.35 0.85 -0.20 0 -0.10 0.35 0.25 0.75 0.30 0.40 0.45 0.90 0.30 1.15 -0.15 0.30 0.05 0.75 0.45 1.10 0.40 0.35 0.75 1.05 0.75 1.55 0 1.05 -2.80 4.45 -3.70 4.45 -0.35 0 -1.85 1.30 -3.40 2.90 -1.55 1.55 -4.40 4.35 -6.30 6.25 -1.90 1.85 -3.30 3.50 -3.05 3.65 0.25 0.15 1.30 0 2.30 -0.25 3.55 -1 4.85 -0.75 5.60 1.10 0.35 0.85 0.70 1.85 0.75 2.10 0.05 0.30 0.40 1.15 0.70 1.95 0.35 0.80 0.50 1.80 0.35 2.20 -0.15 0.40 -0.05 1 0.20 1.30 0.70 0.90 1.20 3.80 0.60 3.80 -1.45 0 1.40 3.50 2.90 3.50 0.45 0.05 3.30 0.75 6.30 1.70 5.50 1.60 5.50 1.60 5.65 7.10 0.10 3.35 0.40 5.75 0.80 6.20 0.85 1.05 0.30 4.20 -0.80 4.40 -0.65 0.10 -0.90 -0.15 -0.90 -0.90z"/>
  <path d="M89.50 145.90 c0 -4.05 0.40 -5.50 1.45 -5.30 1.05 0.20 1.20 1.35 0.80 5.20 -0.30 2.70 -0.50 3.20 -1.30 3.20 -0.85 0 -0.95 -0.35 -0.95 -3.10z"/>
 </g>
 <g fill="#424142">
  <path d="M218.75 282.60 c-0.20 -0.50 -0.30 -7.75 -0.25 -16.15 0.05 -12.45 -0.10 -15.40 -0.65 -15.85 -0.40 -0.35 -0.85 -0.45 -1 -0.25 -0.20 0.15 -0.35 0 -0.35 -0.40 0 -0.90 6.45 -1.95 12.05 -1.95 4.10 0 12.80 -1.90 20 -4.45 7.70 -2.70 16.25 -7.20 24.70 -13 4.20 -2.85 15 -13.05 17.05 -16.05 0.65 -0.95 2.45 -3.30 4 -5.25 2.95 -3.70 7.65 -11.25 8.95 -14.35 0.70 -1.75 0.70 -1.90 -0.05 -1.90 -0.50 0 0.05 -0.90 1.65 -2.70 7.25 -8.15 11.50 -20.05 11.05 -31 -0.15 -4.55 -0.15 -4.55 15.10 -4.80 8.40 -0.15 15.55 -0.15 15.85 -0.05 0.45 0.10 0.55 1 0.40 3 -0.10 1.55 -0.35 5.15 -0.50 8.05 -0.45 7.45 -0.40 7.30 -3.40 7.95 -1.45 0.30 -4.60 0.95 -7 1.50 -2.45 0.50 -4.60 1.15 -4.80 1.35 -0.25 0.25 -0.70 2.15 -1 4.20 -0.35 2.05 -1.65 6.65 -2.80 10.20 -2.20 6.50 -2.20 6.50 2.80 11.50 2.70 2.75 4.95 5.25 4.95 5.60 0 0.80 -5.85 12.10 -7.20 13.95 -0.60 0.85 -1.70 2.50 -2.40 3.75 -0.70 1.25 -1.70 2.75 -2.25 3.35 -0.50 0.60 -1.55 2 -2.30 3.15 -1.40 1.95 -2.50 2.50 -3.10 1.50 -0.20 -0.30 -0.55 -0.40 -0.80 -0.25 -0.25 0.20 -0.45 -0.10 -0.45 -0.60 0 -0.70 -0.10 -0.75 -0.45 -0.20 -0.30 0.45 -0.75 0.55 -1.35 0.30 -0.55 -0.25 -1.10 -0.35 -1.30 -0.35 -0.25 0.05 -0.40 -0.25 -0.40 -0.70 0 -0.70 -0.15 -0.70 -0.80 -0.15 -0.45 0.35 -0.90 0.45 -1.10 0.15 -0.20 -0.25 -1 -0.50 -1.85 -0.60 -0.80 -0.10 -1.60 -0.40 -1.65 -0.65 -0.10 -0.25 -0.40 -0.35 -0.65 -0.15 -0.25 0.15 -0.45 -0.15 -0.45 -0.65 0 -0.70 -0.10 -0.75 -0.45 -0.20 -0.35 0.55 -1.15 0.45 -4.35 -0.65 -2.20 -0.70 -4.25 -1.30 -4.60 -1.30 -0.40 0 0.25 1.05 1.40 2.40 3.20 3.60 3.25 3.80 1.30 5.40 -0.90 0.80 -3.60 3.25 -5.95 5.50 -4.35 4.05 -4.35 4.05 -2.60 10.95 1.65 6.45 1.70 6.95 0.95 7.80 -1.45 1.65 -5.70 4.10 -7 4.10 -0.90 0 -1.40 0.35 -1.75 1.25 -0.25 0.65 -0.60 1.10 -0.80 0.95 -0.15 -0.20 -0.55 0 -0.85 0.40 -0.60 0.75 -10.85 5.95 -13.90 7.05 -2.05 0.70 -1.15 1.45 -11 -8.90 -1.10 -1.10 -1.30 -1.10 -3.45 -0.20 -1.95 0.80 -12.45 3.25 -16.10 3.80 -1.35 0.20 -2.60 0.65 -2.85 1 -0.25 0.35 -1.15 3.40 -2 6.70 -0.85 3.35 -1.85 6.30 -2.15 6.65 -0.35 0.35 -2.80 0.70 -6.20 0.85 -4.85 0.20 -5.60 0.10 -5.90 -0.60z"/>
  <path d="M201.85 249.15 c-1.65 -0.45 -0.75 -1.90 1.30 -2.05 1.70 -0.15 1.85 -0.05 1.85 1.10 0 1.35 -0.80 1.55 -3.15 0.95z"/>
  <path d="M178.65 241.85 c-4.65 -2.35 -5.25 -3.35 -2 -3.35 1.50 0 2.40 0.30 3 1 0.45 0.55 1.30 1 1.85 1 0.55 0 1 0.20 1 0.45 0 0.25 0.45 0.65 1 0.80 1.25 0.40 1.35 2.25 0.15 2.20 -0.50 0 -2.75 -0.95 -5 -2.10z"/>
  <path d="M207.50 241 c0 -0.95 0.35 -1 4.75 -1 4.40 0 4.75 0.05 4.75 1 0 0.95 -0.35 1 -4.75 1 -4.40 0 -4.75 -0.05 -4.75 -1z"/>
  <path d="M195 240 c0 -1.05 0.50 -1.20 2.40 -0.70 1.80 0.50 1.35 1.70 -0.65 1.70 -1.40 0 -1.75 -0.20 -1.75 -1z"/>
  <path d="M178 237 c0 -1.05 0.50 -1.20 2.40 -0.70 1.80 0.50 1.35 1.70 -0.65 1.70 -1.40 0 -1.75 -0.20 -1.75 -1z"/>
  <path d="M174 235.80 c0 -1.15 0.10 -1.20 1.75 -0.65 0.95 0.30 1.75 0.80 1.75 1.20 0 0.40 -0.65 0.65 -1.75 0.65 -1.50 0 -1.75 -0.15 -1.75 -1.20z"/>
  <path d="M242.30 214.95 c0.50 -0.55 1.35 -1.25 1.80 -1.50 0.75 -0.40 0.90 -0.25 0.90 1.05 0 1.40 -0.15 1.50 -1.85 1.50 -1.80 0 -1.80 0 -0.85 -1.05z"/>
  <path d="M250.75 208.20 c1.90 -1.70 2 -1.70 2.15 -0.70 0.30 1.90 -0.25 2.50 -2.25 2.50 -1.90 -0.05 -1.90 -0.05 0.10 -1.80z"/>
  <path d="M253.55 206.15 c0 -0.25 0.95 -1.15 2.10 -2.10 2.10 -1.70 2.10 -1.70 2.25 -0.35 0.10 0.75 -0.10 1.70 -0.45 2.10 -0.60 0.70 -3.95 1 -3.90 0.35z"/>
  <path d="M264.25 196.80 c3.30 -3 3.50 -3.10 3.65 -1.95 0.25 1.95 -0.25 2.65 -1.90 2.65 -1.25 0 -1.50 0.20 -1.50 1.25 0 1.10 -0.20 1.25 -1.85 1.25 -1.90 0 -1.90 0 1.60 -3.20z"/>
  <path d="M218.90 197.15 c-2 -0.15 -2.40 -0.40 -2.40 -1.20 0 -0.85 0.35 -0.95 3 -0.95 2.85 0 3 0.05 3 1.25 0 0.70 -0.25 1.20 -0.60 1.15 -0.35 -0.05 -1.70 -0.15 -3 -0.25z"/>
  <path d="M239 196.05 c0 -0.85 0.30 -1.05 1.80 -1.05 1.40 0 1.75 0.15 1.60 0.90 -0.10 0.55 -0.70 0.90 -1.80 1 -1.35 0.15 -1.60 0 -1.60 -0.85z"/>
  <path d="M229 195.30 c0 -0.65 1.40 -1.30 2.90 -1.30 0.30 0 0.60 0.45 0.60 1 0 0.80 -0.35 1 -1.75 1 -1.15 0 -1.75 -0.25 -1.75 -0.70z"/>
  <path d="M246 195.05 c0 -0.90 0.30 -1.05 2.05 -1.05 1.65 0 2 0.15 1.85 0.90 -0.10 0.60 -0.70 0.90 -2.05 1 -1.60 0.15 -1.85 0 -1.85 -0.85z"/>
  <path d="M205.65 195.15 c0.45 -0.10 1.25 -0.10 1.75 0 0.45 0.15 0.05 0.25 -0.90 0.25 -0.95 0 -1.35 -0.10 -0.85 -0.25z"/>
  <path d="M252 194.10 c0 -0.75 0.65 -1.05 3.20 -1.50 1.75 -0.35 3.75 -0.60 4.45 -0.60 0.70 0 1.35 -0.20 1.45 -0.50 0.10 -0.25 1.45 -0.60 3.05 -0.80 2.40 -0.30 2.85 -0.20 2.85 0.45 0 0.95 -2.80 1.85 -10.40 3.35 -3.80 0.70 -4.60 0.65 -4.60 -0.40z"/>
  <path d="M182.85 190.65 c-0.95 -0.95 -0.25 -1.65 1.65 -1.65 1.65 0 2 0.15 2 1 0 0.80 -0.35 1 -1.65 1 -0.95 0 -1.85 -0.15 -2 -0.35z"/>
  <path d="M177.75 190.05 c-1.85 -0.40 -2.40 -2.05 -0.65 -2.05 2.95 0 4.90 0.65 4.90 1.55 0 1 -1.25 1.15 -4.25 0.50z"/>
  <path d="M203.50 189 c0 -0.75 0.35 -1 1.45 -1 1.95 0 3.05 0.45 3.05 1.30 0 0.50 -0.65 0.70 -2.25 0.70 -1.90 0 -2.25 -0.15 -2.25 -1z"/>
  <path d="M219.60 189.15 c0.10 -0.60 0.70 -0.95 1.80 -1.05 1.35 -0.15 1.60 0 1.60 0.85 0 0.85 -0.30 1.05 -1.80 1.05 -1.40 0 -1.75 -0.15 -1.60 -0.85z"/>
  <path d="M172.25 188.70 c-0.25 -0.10 -1.45 -0.40 -2.60 -0.70 -1.40 -0.35 -2.15 -0.80 -2.15 -1.35 0 -0.65 0.40 -0.75 2.55 -0.50 1.45 0.20 2.70 0.40 2.80 0.55 0.45 0.40 -0.10 2.15 -0.60 2z"/>
  <path d="M181 186.50 c0 -0.75 0.35 -1 1.40 -1 1.30 0 1.25 -0.10 -0.90 -1.45 -5.30 -3.40 -9.90 -10 -10.80 -15.50 -0.35 -2.05 -0.30 -2.15 0.85 -1.95 0.85 0.10 1.25 0.50 1.35 1.40 0.15 1.30 0.70 2.75 1.90 5.10 0.40 0.70 0.70 1.65 0.70 2.10 0 0.45 0.35 0.80 0.75 0.80 0.40 0 0.75 0.45 0.75 1 0 0.55 0.25 1 0.55 1 0.65 0 1.95 1.25 1.95 1.90 0 0.25 0.55 0.65 1.25 0.80 0.80 0.20 1.25 0.65 1.25 1.30 0 0.65 0.35 1 0.95 1 2 0 2.55 0.55 2.55 2.55 0 1.95 0 1.95 -2.25 1.95 -1.90 0 -2.25 -0.15 -2.25 -1z"/>
  <path d="M176.15 185.65 c-0.35 -0.10 -0.65 -0.55 -0.65 -0.95 0 -0.40 -0.45 -0.70 -1 -0.70 -0.55 0 -1 -0.35 -1 -0.75 0 -0.40 -0.55 -1.10 -1.25 -1.55 -0.85 -0.55 -1.25 -1.25 -1.25 -2.25 0 -0.80 0.10 -1.45 0.25 -1.45 0.10 0 1.30 1.15 2.60 2.55 1.30 1.40 3.20 3 4.25 3.50 1.05 0.55 1.90 1.20 1.90 1.45 0 0.50 -2.75 0.60 -3.85 0.15z"/>
  <path d="M254.50 184.45 c0 -0.40 3.95 -1.20 4.30 -0.85 0.10 0.15 -0.80 0.45 -2.05 0.75 -1.25 0.30 -2.25 0.35 -2.25 0.10z"/>
  <path d="M188.50 182 c0 -1.05 0.50 -1.20 2.40 -0.70 1.80 0.50 1.35 1.70 -0.65 1.70 -1.40 0 -1.75 -0.20 -1.75 -1z"/>
  <path d="M194 182.30 c0 -0.65 1.40 -1.30 2.90 -1.30 0.30 0 0.60 0.45 0.60 1 0 0.80 -0.35 1 -1.75 1 -1.15 0 -1.75 -0.25 -1.75 -0.70z"/>
  <path d="M229.15 178.25 c0.30 -0.95 0.80 -1.75 1.20 -1.75 0.40 0 0.65 0.65 0.65 1.75 0 1.50 -0.15 1.75 -1.20 1.75 -1.15 0 -1.20 -0.10 -0.65 -1.75z"/>
  <path d="M145.65 177.95 c-2.10 -1.35 -2.10 -1.95 0.10 -1.95 1.60 0 1.75 0.10 1.75 1.50 0 0.85 -0.05 1.50 -0.10 1.50 -0.10 0 -0.90 -0.50 -1.75 -1.05z"/>
  <path d="M166.15 173.65 c-0.65 -1.90 -0.20 -6.15 0.60 -6.15 0.80 0 1.55 3.15 1.35 5.65 -0.20 2.20 -1.30 2.50 -1.95 0.50z"/>
  <path d="M230.50 174.25 c0 -0.70 1.60 -3.25 2 -3.25 0.30 0 0.50 0.80 0.50 1.75 0 1.55 -0.15 1.75 -1.25 1.75 -0.70 0 -1.25 -0.10 -1.25 -0.25z"/>
  <path d="M209.95 171.90 c1.40 -2.25 2.05 -2.30 2.05 -0.20 0 1.70 -0.10 1.80 -1.55 1.80 -1.55 0 -1.55 0 -0.50 -1.60z"/>
  <path d="M146.50 168.65 c0 -0.25 0.40 -1.85 0.90 -3.65 0.65 -2.15 1.20 -3.30 1.75 -3.40 0.70 -0.15 0.85 0.25 0.85 2.10 0 1.25 -0.20 2.30 -0.50 2.30 -0.25 0 -0.50 0.70 -0.50 1.50 0 1.25 -0.20 1.50 -1.25 1.50 -0.70 0 -1.25 -0.15 -1.25 -0.35z"/>
  <path d="M153 165.75 c0 -1.40 0.20 -1.75 1 -1.75 1.05 0 1.20 0.50 0.70 2.40 -0.50 1.80 -1.70 1.35 -1.70 -0.65z"/>
  <path d="M291.70 164.75 c-0.20 -0.45 -0.95 -0.75 -1.75 -0.75 -1.10 0 -1.45 -0.25 -1.45 -1 0 -0.85 0.35 -1 2 -1 1.95 0 2 0.05 2 1.75 0 1.85 -0.35 2.25 -0.80 1z"/>
  <path d="M170.50 162.75 c0 -0.95 0.25 -1.75 0.50 -1.75 0.30 0 0.50 0.30 0.50 0.65 0 0.30 0.15 1.10 0.30 1.75 0.25 0.80 0.10 1.10 -0.50 1.10 -0.60 0 -0.80 -0.45 -0.80 -1.75z"/>
  <path d="M164.10 160.65 c0.10 -1.80 0.40 -2.45 1.05 -2.55 0.70 -0.15 0.85 0.25 0.85 2.35 0 2.25 -0.10 2.55 -1.05 2.55 -0.90 0 -1 -0.25 -0.85 -2.35z"/>
  <path d="M244 160.25 c0 -1.50 0.15 -1.75 1.20 -1.75 1.15 0 1.20 0.10 0.65 1.75 -0.30 0.95 -0.80 1.75 -1.20 1.75 -0.40 0 -0.65 -0.65 -0.65 -1.75z"/>
  <path d="M138 158.75 c0 -1.45 0.20 -1.75 1 -1.75 0.85 0 1 0.30 0.90 1.75 -0.05 1.30 -0.35 1.75 -1 1.75 -0.70 0 -0.90 -0.40 -0.90 -1.75z"/>
  <path d="M149.50 159.25 c0 -1.25 1.15 -3.25 1.85 -3.25 0.45 0 0.65 0.65 0.65 2 0 1.80 -0.10 2 -1.25 2 -0.75 0 -1.25 -0.30 -1.25 -0.75z"/>
  <path d="M155 155.25 c0 -1.40 0.20 -1.75 1 -1.75 1.05 0 1.20 0.50 0.70 2.40 -0.50 1.80 -1.70 1.35 -1.70 -0.65z"/>
  <path d="M164.75 155.15 c0.50 -2.80 0.65 -3.15 1.50 -3.15 0.55 0 0.75 0.60 0.75 2.50 0 2.35 -0.10 2.50 -1.25 2.50 -1.20 0 -1.30 -0.10 -1 -1.85z"/>
  <path d="M122.35 155.50 c-0.25 -0.95 -0.75 -1 -16.45 -1.10 -16.15 -0.15 -16.15 -0.15 -16.30 -2.75 -0.10 -1.45 0.05 -3.80 0.35 -5.25 0.25 -1.45 0.30 -2.85 0.05 -3.10 -0.20 -0.20 -0.20 -1.10 0.05 -1.95 0.25 -0.90 0.45 -2.30 0.45 -3.20 0 -2.05 0.30 -2.20 8.15 -3.90 3.55 -0.80 6.50 -1.65 6.60 -1.95 0.05 -0.30 0.55 -2.35 1 -4.55 0.50 -2.20 1.55 -5.90 2.35 -8.25 3.05 -8.75 3.30 -7.35 -2.25 -12.90 -2.95 -2.95 -4.85 -5.25 -4.85 -5.90 0 -1.45 5.65 -12.60 6.95 -13.70 0.15 -0.15 1.40 -1.95 2.80 -4 1.35 -2.05 2.55 -3.85 2.75 -4 0.15 -0.15 0.80 -1.10 1.50 -2.10 0.70 -1.05 1.50 -1.90 1.85 -1.90 0.30 0 3.35 0.90 6.75 1.95 8.35 2.65 14.20 4.20 14.85 4 0.35 -0.15 -0.45 -1.45 -1.75 -2.95 -2.30 -2.70 -2.30 -2.70 1.15 -6 1.85 -1.80 4.50 -4.20 5.80 -5.35 1.35 -1.15 2.40 -2.50 2.45 -3 0 -0.50 -0.70 -3.55 -1.55 -6.75 -1.90 -7.10 -1.90 -7.60 -0.30 -8.30 0.70 -0.35 2.50 -1.50 4 -2.60 1.50 -1.10 3.05 -2 3.45 -2 0.40 0 1.05 -0.30 1.40 -0.70 0.40 -0.35 1.20 -0.85 1.80 -1 0.60 -0.20 1.10 -0.60 1.10 -0.85 0 -0.25 0.45 -0.45 1 -0.45 0.55 0 1 -0.25 1 -0.60 0 -0.30 0.15 -0.45 0.30 -0.25 0.15 0.15 1.40 -0.40 2.75 -1.20 1.40 -0.80 2.80 -1.45 3.20 -1.45 0.35 0 0.75 -0.20 0.85 -0.50 0.10 -0.25 0.65 -0.55 1.25 -0.65 0.55 -0.05 1.35 -0.40 1.75 -0.70 0.35 -0.30 1 -0.45 1.40 -0.40 0.70 0.10 6.15 5.40 9.10 8.90 1.15 1.30 3.70 1.90 4.60 1 0.15 -0.20 0.65 -0.40 1.05 -0.45 0.35 -0.05 1.55 -0.40 2.60 -0.75 1.05 -0.35 2.20 -0.60 2.50 -0.55 0.35 0.10 0.65 -0.05 0.65 -0.30 0 -0.25 1.05 -0.60 2.40 -0.80 1.30 -0.15 3.50 -0.40 4.85 -0.60 1.40 -0.15 2.85 -0.50 3.30 -0.75 0.65 -0.30 2.65 -6.70 4.20 -13.15 0.40 -1.65 -0.10 -1.55 8.65 -2 4.60 -0.25 4.60 -0.25 4.60 16 0 13.95 0.10 16.25 0.75 16.50 0.40 0.20 0.75 0.60 0.75 1 0 0.55 -1.10 0.70 -5.15 0.70 -2.85 0 -5.35 0.20 -5.60 0.45 -0.30 0.25 -1.95 0.60 -3.75 0.70 -3.75 0.30 -6.35 0.75 -7.75 1.35 -0.55 0.25 -2 0.55 -3.25 0.75 -1.25 0.15 -2.70 0.60 -3.25 0.95 -0.55 0.35 -1.90 0.80 -2.95 1 -1.10 0.20 -2.45 0.70 -3 1.10 -0.55 0.40 -1.35 0.70 -1.80 0.70 -0.40 0 -2 0.60 -3.50 1.30 -1.50 0.75 -3.55 1.70 -4.50 2.10 -1.60 0.75 -7.25 4.35 -14.10 9.10 -3.25 2.25 -16.40 15.25 -16.40 16.20 0 0.35 -0.45 1.05 -1.05 1.60 -3.75 3.35 -11.95 18.60 -14.95 27.65 -3 9.25 -5 19.95 -5 27 0 3.55 -0.15 4.55 -0.70 4.55 -0.35 0 -0.80 -0.45 -0.95 -1z"/>
  <path d="M307.15 153.75 c0.30 -0.95 0.80 -1.75 1.20 -1.75 0.40 0 0.65 0.65 0.65 1.75 0 1.50 -0.15 1.75 -1.20 1.75 -1.15 0 -1.20 -0.10 -0.65 -1.75z"/>
  <path d="M241.95 150.90 c2.35 -3.75 3.05 -4.10 3.05 -1.70 0 1.45 -0.20 1.80 -1 1.80 -0.80 0 -1 0.35 -1 1.50 0 1.35 -0.15 1.50 -1.50 1.50 -1.50 0 -1.50 0 0.45 -3.10z"/>
  <path d="M153.10 151.65 c1.20 -2.55 1.65 -3.15 2.25 -3.15 0.40 0 0.65 0.60 0.65 1.75 0 1.60 -0.10 1.75 -1.55 1.75 -0.85 0 -1.45 -0.15 -1.35 -0.35z"/>
  <path d="M247 149.75 c0 -1.55 0.15 -1.75 1.30 -1.75 1.05 0 1.25 0.15 0.95 0.90 -0.20 0.45 -0.50 1.25 -0.60 1.75 -0.50 1.60 -1.65 0.95 -1.65 -0.90z"/>
  <path d="M165.65 150.15 c0.15 -0.50 0.40 -1.50 0.55 -2.25 0.55 -2.35 1.80 -1.75 1.80 0.85 0 2.10 -0.10 2.25 -1.30 2.25 -0.95 0 -1.20 -0.20 -1.05 -0.85z"/>
  <path d="M215.70 150.15 c0.15 -0.50 0.50 -1.90 0.80 -3.15 0.95 -3.75 1.05 -4 1.80 -4 0.90 0 0.90 1.80 0.10 5.35 -0.55 2.25 -0.80 2.65 -1.80 2.65 -0.90 0 -1.10 -0.20 -0.90 -0.85z"/>
  <path d="M169 148.25 c0 -1.50 0.15 -1.75 1.20 -1.75 1.15 0 1.20 0.10 0.65 1.75 -0.30 0.95 -0.80 1.75 -1.20 1.75 -0.40 0 -0.65 -0.65 -0.65 -1.75z"/>
  <path d="M308 147.25 c0 -1.40 0.20 -1.75 1 -1.75 0.80 0 1 0.35 1 1.75 0 1.40 -0.20 1.75 -1 1.75 -0.80 0 -1 -0.35 -1 -1.75z"/>
  <path d="M245 146.60 c0 -0.25 1.10 -1.65 2.50 -3.15 1.65 -1.85 2.45 -2.40 2.50 -1.80 0 0.45 0.35 0.85 0.75 0.85 0.90 0 0.90 -0.05 0.20 1.95 -0.50 1.40 -1.95 2.20 -1.95 1.05 0 -0.25 -0.20 -0.50 -0.50 -0.50 -0.25 0 -0.50 0.45 -0.50 1 0 0.80 -0.35 1 -1.50 1 -0.80 0 -1.50 -0.20 -1.50 -0.40z"/>
  <path d="M166.85 144.40 c1.20 -6.15 2.50 -10.15 3.30 -10.30 0.70 -0.15 0.85 0.20 0.85 1.85 0 1.15 -0.20 2.05 -0.50 2.05 -0.25 0 -0.50 0.90 -0.50 2 0 1.10 -0.20 2 -0.50 2 -0.25 0 -0.50 0.90 -0.50 2 0 1.80 -0.15 2 -1.25 2 -1.10 0 -1.20 -0.15 -0.90 -1.60z"/>
  <path d="M171 141.25 c0 -1.50 0.15 -1.75 1.20 -1.75 1.15 0 1.20 0.10 0.65 1.75 -0.30 0.95 -0.80 1.75 -1.20 1.75 -0.40 0 -0.65 -0.65 -0.65 -1.75z"/>
  <path d="M141 140.75 c0 -1.40 0.20 -1.75 1 -1.75 1.05 0 1.20 0.50 0.70 2.40 -0.50 1.80 -1.70 1.35 -1.70 -0.65z"/>
  <path d="M218.75 139.15 c0.15 -0.50 1 -3 1.80 -5.50 1.05 -3.30 1.75 -4.65 2.30 -4.65 0.65 0 0.75 0.45 0.50 2.35 -0.15 1.30 -0.50 2.45 -0.80 2.55 -0.30 0.10 -0.55 0.85 -0.55 1.65 0 0.80 -0.20 1.45 -0.50 1.45 -0.25 0 -0.50 0.70 -0.50 1.50 0 1.30 -0.20 1.50 -1.30 1.50 -1.05 0 -1.25 -0.20 -0.95 -0.85z"/>
  <path d="M169.65 132.90 c0.10 -0.35 0.80 -2.60 1.55 -5 0.90 -2.95 1.60 -4.40 2.05 -4.40 0.55 0 0.75 0.60 0.75 2 0 1.10 -0.20 2 -0.50 2 -0.25 0 -0.50 0.70 -0.50 1.50 0 0.85 -0.20 1.50 -0.50 1.50 -0.25 0 -0.50 0.70 -0.50 1.50 0 1.30 -0.20 1.50 -1.30 1.50 -0.85 0 -1.20 -0.20 -1.05 -0.60z"/>
  <path d="M145 127.25 c0 -1.55 0.15 -1.75 1.30 -1.75 1.05 0 1.25 0.15 0.95 0.90 -0.20 0.45 -0.50 1.25 -0.60 1.75 -0.50 1.60 -1.65 0.95 -1.65 -0.90z"/>
  <path d="M222.50 128.30 c0 -0.05 0.25 -0.85 0.55 -1.75 0.75 -2.15 1.95 -2.05 1.95 0.20 0 1.55 -0.15 1.75 -1.25 1.75 -0.70 0 -1.25 -0.10 -1.25 -0.20z"/>
  <path d="M147 122.25 c0 -1.55 0.15 -1.75 1.30 -1.75 1.05 0 1.25 0.15 0.95 0.90 -0.20 0.45 -0.50 1.25 -0.60 1.75 -0.50 1.60 -1.65 0.95 -1.65 -0.90z"/>
  <path d="M225 122.20 c0 -0.15 1.05 -2.55 2.35 -5.25 2.40 -5.20 3.65 -6.25 3.65 -3.20 0 0.95 -0.20 1.75 -0.50 1.75 -0.25 0 -0.50 0.45 -0.50 1 0 0.55 -0.20 1 -0.50 1 -0.25 0 -0.50 0.45 -0.50 1 0 0.55 -0.20 1 -0.45 1 -0.25 0 -0.55 0.70 -0.70 1.50 -0.25 1.20 -0.60 1.50 -1.60 1.50 -0.70 0 -1.25 -0.15 -1.25 -0.30z"/>
  <path d="M177.50 110.55 c0 -0.20 0.70 -2 1.55 -4 1.75 -3.90 2.95 -4.65 2.95 -1.80 0 0.95 -0.20 1.75 -0.50 1.75 -0.25 0 -0.50 0.45 -0.50 1 0 0.55 -0.20 1 -0.50 1 -0.25 0 -0.50 0.55 -0.50 1.25 0 1 -0.25 1.25 -1.25 1.25 -0.70 0 -1.25 -0.20 -1.25 -0.45z"/>
  <path d="M232.80 106.90 c2.25 -3.60 4.35 -6.40 4.80 -6.40 0.20 0 0.40 0.80 0.40 1.75 0 0.95 -0.20 1.75 -0.50 1.75 -0.25 0 -0.50 0.30 -0.50 0.70 0 0.40 -0.15 0.80 -0.35 0.90 -0.25 0.10 -0.80 0.85 -1.25 1.65 -0.60 1.10 -1.25 1.55 -2.40 1.65 -1.55 0.15 -1.55 0.15 -0.20 -2z"/>
  <path d="M294.40 102.90 c-2.65 -4.10 -2.65 -3.90 -0.95 -3.90 1.40 0 1.55 0.15 1.55 1.50 0 1.15 0.20 1.50 1 1.50 0.80 0 1 0.35 1 1.75 0 0.95 -0.20 1.75 -0.45 1.75 -0.25 0 -1.25 -1.20 -2.15 -2.60z"/>
  <path d="M181.50 101.55 c0 -0.85 6.30 -11.75 6.90 -11.95 0.40 -0.10 0.60 0.45 0.60 1.60 0 1.45 -0.20 1.80 -1 1.80 -0.80 0 -1 0.35 -1 1.75 0 0.95 -0.20 1.75 -0.50 1.75 -0.25 0 -0.50 0.45 -0.50 1 0 0.65 -0.35 1 -1 1 -0.80 0 -1 0.35 -1 1.75 0 1.55 -0.15 1.75 -1.25 1.75 -0.70 0 -1.25 -0.20 -1.25 -0.45z"/>
  <path d="M189 99.30 c0 -1.70 0.10 -1.80 1.55 -1.80 1.55 0 1.55 0 0.50 1.60 -1.40 2.25 -2.05 2.30 -2.05 0.20z"/>
  <path d="M161 97.25 c0 -1.40 0.20 -1.75 1 -1.75 0.75 0 1 -0.35 1 -1.25 0 -1.05 0.25 -1.25 1.50 -1.25 1.75 0 1.75 -0.05 -0.95 3.65 -0.95 1.30 -1.90 2.35 -2.15 2.35 -0.20 0 -0.40 -0.80 -0.40 -1.75z"/>
  <path d="M238.75 98.60 c0.30 -0.20 0.90 -0.95 1.40 -1.70 1.20 -1.90 1.85 -1.75 1.85 0.35 0 1.70 -0.05 1.75 -1.85 1.75 -1.05 0 -1.65 -0.20 -1.40 -0.40z"/>
  <path d="M288.35 94.75 c-1.40 -1.75 -1.40 -1.75 0.40 -1.75 1.65 0 1.75 0.10 1.75 1.75 0 0.95 -0.15 1.75 -0.35 1.75 -0.25 0 -1.05 -0.80 -1.80 -1.75z"/>
  <path d="M192 94.25 c0 -1.40 0.20 -1.75 1 -1.75 0.80 0 1 -0.35 1 -1.50 0 -1.15 0.20 -1.50 1 -1.50 0.80 0 1 -0.35 1 -1.50 0 -1.35 0.15 -1.50 1.55 -1.50 1.55 0 1.55 0 0.65 1.40 -3.20 4.95 -5.45 8.10 -5.80 8.10 -0.20 0 -0.40 -0.80 -0.40 -1.75z"/>
  <path d="M247 90.55 c0 -0.25 0.80 -1.05 1.75 -1.75 1.75 -1.35 1.75 -1.35 1.75 0.40 0 1.70 -0.10 1.80 -1.75 1.80 -0.95 0 -1.75 -0.20 -1.75 -0.45z"/>
  <path d="M189.80 86.65 c3.85 -5.95 4.20 -6.25 4.20 -3.40 0 1.40 -0.20 1.75 -1 1.75 -0.80 0 -1 0.35 -1 1.50 0 1.35 -0.15 1.50 -1.55 1.50 -1.55 0 -1.55 0 -0.65 -1.35z"/>
  <path d="M256 85.55 c0 -1.30 0.30 -1.65 2.30 -2.55 4.55 -2 4.75 -0.80 0.35 2.20 -2.65 1.80 -2.65 1.80 -2.65 0.35z"/>
  <path d="M278.65 85 c-0.90 -0.80 -1.65 -1.60 -1.65 -1.75 0 -0.15 0.80 -0.25 1.75 -0.25 1.65 0 1.75 0.10 1.75 1.75 0 0.95 -0.05 1.75 -0.10 1.75 -0.10 0 -0.90 -0.70 -1.75 -1.50z"/>
  <path d="M199 84.25 c0 -1.60 0.10 -1.75 1.50 -1.75 0.85 0 1.50 0.15 1.50 0.40 -0.05 0.45 -2.35 3.10 -2.75 3.10 -0.15 0 -0.25 -0.80 -0.25 -1.75z"/>
  <path d="M203 79.25 c0 -1.65 0.10 -1.75 1.75 -1.75 1.80 0 1.80 0 0.40 1.75 -0.75 0.95 -1.55 1.75 -1.75 1.75 -0.25 0 -0.40 -0.80 -0.40 -1.75z"/>
  <path d="M270.65 78.95 c-2.10 -1.35 -2.10 -1.95 0.10 -1.95 1.60 0 1.75 0.10 1.75 1.50 0 0.85 -0.05 1.50 -0.10 1.50 -0.10 0 -0.90 -0.50 -1.75 -1.05z"/>
  <path d="M265.65 75.95 c-2.10 -1.35 -2.10 -1.95 0.10 -1.95 1.60 0 1.75 0.10 1.75 1.50 0 0.85 -0.05 1.50 -0.10 1.50 -0.10 0 -0.90 -0.50 -1.75 -1.05z"/>
  <path d="M189 71.50 c0 -1.40 0.15 -1.50 1.75 -1.50 0.95 0 1.75 0.20 1.75 0.45 0 0.25 -0.80 0.90 -1.75 1.50 -1.75 1 -1.75 1 -1.75 -0.45z"/>
  <path d="M195 68.30 c0 -1.15 0.20 -1.30 1.75 -1.30 1.85 0 2.50 1.15 0.90 1.65 -0.50 0.10 -1.30 0.40 -1.75 0.60 -0.75 0.30 -0.90 0.10 -0.90 -0.95z"/>
  <path d="M238.65 67.15 c-1.25 -0.15 -1.65 -0.45 -1.65 -1.20 0 -0.80 0.35 -0.95 2 -0.95 1.80 0 2 0.15 2 1.25 0 0.70 -0.15 1.20 -0.35 1.15 -0.25 0 -1.15 -0.15 -2 -0.25z"/>
  <path d="M205.85 66.15 c0.25 -0.70 0.05 -0.75 -1.25 -0.50 -1.45 0.30 -1.60 0.20 -1.60 -0.90 0 -1.10 0.20 -1.25 1.75 -1.25 1.65 0 1.75 0.10 1.75 1.75 0 0.95 -0.20 1.75 -0.50 1.75 -0.25 0 -0.35 -0.35 -0.15 -0.85z"/>
  <path d="M221 59.75 c0 -1.20 0.10 -1.25 3 -1.20 1.65 0.05 3 0.30 3 0.55 0 0.30 0.35 0.40 0.75 0.20 0.50 -0.20 0.75 0.05 0.75 0.70 0 0.90 -0.35 1 -3.75 1 -3.65 0 -3.75 -0.05 -3.75 -1.25z"/>
 </g>
 <g fill="#0b003d">
  <path d="M206.65 249.85 c-1.75 -0.25 -3.15 -0.60 -3.15 -0.80 0 -0.25 -0.55 -0.30 -1.20 -0.20 -2.45 0.50 -21.30 -5.15 -21.30 -6.35 0 -0.25 -0.30 -0.35 -0.65 -0.20 -0.40 0.15 -1.25 -0.35 -2 -1.10 -0.70 -0.70 -1.60 -1.20 -1.95 -1.05 -0.35 0.15 -2.10 -0.55 -3.90 -1.50 -4.55 -2.45 -11.15 -6.85 -10.55 -7.05 0.25 -0.10 2 0.30 3.90 0.85 3.05 0.90 6 1.75 11.15 3.10 1.80 0.50 4.70 1.05 15.10 2.90 11.45 2.05 23.20 2.35 31.20 0.80 15 -2.85 32.10 -11.35 54.45 -27 3.60 -2.50 7.95 -5.55 9.75 -6.75 5.05 -3.40 8.30 -6.10 14.30 -12.05 3 -3 5.65 -5.45 5.85 -5.45 0.50 0 0.45 1.40 -0.15 2.40 -0.25 0.45 -1.35 2.75 -2.40 5.10 -2.25 4.95 -6.65 12.05 -9.85 16 -1.25 1.50 -2.80 3.55 -3.45 4.50 -0.65 0.95 -3.85 4.35 -7.10 7.55 -7.70 7.50 -14.85 12.45 -25.40 17.60 -9.95 4.85 -22.20 8.25 -31.05 8.65 -10.95 0.45 -18.55 0.50 -21.60 0.05z"/>
  <path d="M235.20 220.55 c0.15 -0.25 2.05 -1.75 4.15 -3.35 2.15 -1.65 4.35 -3.35 4.90 -3.85 1.15 -1.10 7.55 -6.10 9.90 -7.75 0.90 -0.60 1.85 -1.40 2.10 -1.75 0.60 -0.75 3.75 -3.50 6.70 -5.85 1.20 -0.95 3.35 -2.85 4.75 -4.20 2.55 -2.40 2.55 -2.40 0.55 -2.05 -1.10 0.20 -2.20 0.40 -2.50 0.45 -0.25 0.05 -0.80 0.25 -1.10 0.45 -0.35 0.25 -0.90 0.25 -1.15 0.10 -0.30 -0.20 -0.85 -0.05 -1.25 0.25 -0.40 0.30 -1.45 0.65 -2.35 0.80 -0.90 0.10 -2.25 0.30 -3 0.45 -0.80 0.15 -1.90 0.35 -2.50 0.45 -0.65 0.10 -2.15 0.45 -3.35 0.70 -1.25 0.30 -2.40 0.45 -2.60 0.30 -0.20 -0.10 -1 0 -1.75 0.30 -2.25 0.70 -6.20 1.05 -16.30 1.35 -5.80 0.15 -9.40 0.10 -9.40 -0.20 0 -0.25 -0.85 -0.45 -1.85 -0.40 -2.40 0.15 -10.40 -0.70 -11.80 -1.20 -0.55 -0.20 4.25 -0.55 10.70 -0.70 20.75 -0.60 37.35 -4.25 59.35 -13.15 6.20 -2.50 17.80 -8.30 18.30 -9.15 0.15 -0.20 -0.90 -2.35 -2.25 -4.75 -2.85 -4.90 -2.60 -4.80 -7.45 -2.35 -5.30 2.65 -11.10 6.20 -11.80 7.25 -0.35 0.60 -0.85 2.30 -1.10 3.80 -0.40 2.75 -0.40 2.75 -1.35 1.35 -1.30 -2 -1.60 -6.25 -0.55 -8.25 0.95 -1.85 5.40 -5.25 10.70 -8.20 2.70 -1.45 4.40 -2.05 6.60 -2.25 4.70 -0.45 6.55 1.25 8 7.50 0.45 1.95 1.10 3.65 1.35 3.70 0.75 0.25 2.85 -2.05 4.90 -5.35 1.85 -3.10 4.45 -10.45 5 -14.25 0.60 -4.20 0.30 -13.15 -0.60 -16.70 -0.80 -3.25 -0.80 -3.25 -1.85 -1.85 -5.70 7.85 -11.65 13.50 -17.95 17 -3.15 1.75 -11.10 4.25 -11.70 3.65 -0.15 -0.20 0.35 -0.85 1.15 -1.45 3.35 -2.55 11.05 -10.45 13.80 -14.15 4.90 -6.55 7.80 -13.30 8.85 -20.75 0.50 -3.65 0.50 -3.85 -0.90 -6.50 -2.55 -4.90 -3.30 -6.15 -4.15 -7.10 -0.50 -0.50 -0.90 -1.10 -0.90 -1.40 0 -0.50 -0.50 -1.20 -3.10 -4.25 -0.80 -0.90 -1.40 -1.80 -1.40 -2 0 -0.70 -10.95 -11.10 -14 -13.25 -1.75 -1.20 -3.40 -2.45 -3.70 -2.75 -0.30 -0.25 -1.65 -1.05 -2.95 -1.75 -1.30 -0.65 -2.35 -1.40 -2.35 -1.60 0 -0.25 -0.20 -0.40 -0.45 -0.40 -0.40 0 -6.85 -2.90 -10.05 -4.50 -0.40 -0.20 -3.90 -1.05 -7.75 -1.95 -3.85 -0.90 -7.35 -1.80 -7.75 -2 -0.40 -0.20 -5.45 -0.45 -11.25 -0.50 -10.50 -0.10 -10.50 -0.10 -17.35 6.30 -3.75 3.50 -6.85 6.65 -6.85 6.90 -0.05 0.30 -1.10 1.60 -2.30 2.95 -1.25 1.35 -2.25 2.60 -2.25 2.75 0 0.15 -0.50 0.85 -1.10 1.55 -0.65 0.70 -1.45 1.85 -1.85 2.65 -0.40 0.75 -0.90 1.35 -1.15 1.35 -0.20 0 -0.40 0.30 -0.40 0.70 0 0.35 -0.35 0.95 -0.70 1.30 -0.40 0.30 -1.25 1.60 -1.85 2.80 -0.55 1.25 -1.30 2.50 -1.65 2.85 -1.45 1.65 -9.25 17.55 -12.05 24.60 -6.55 16.55 -11.75 35.20 -11.75 42.20 0 9.70 6.75 18.60 15.40 20.30 1.80 0.30 1.25 -0.55 -0.90 -1.50 -1.10 -0.50 -1.85 -1.10 -1.70 -1.30 0.15 -0.25 0.05 -0.45 -0.25 -0.45 -0.75 0 -4.55 -3.75 -4.55 -4.45 0 -0.35 -0.20 -0.50 -0.45 -0.30 -0.30 0.15 -0.75 -0.20 -1.05 -0.75 -0.30 -0.55 -0.40 -1 -0.20 -1 0.15 0 -0.05 -0.55 -0.50 -1.25 -0.45 -0.65 -0.80 -1.55 -0.80 -1.90 0 -0.40 -0.35 -1 -0.75 -1.35 -0.45 -0.35 -0.65 -1.05 -0.50 -1.55 0.20 -0.55 0.10 -0.95 -0.20 -0.95 -0.35 0 -0.55 -1.55 -0.55 -4.25 0 -2.80 0.20 -4.25 0.55 -4.25 0.35 0 0.45 0.50 0.35 1.25 -0.15 0.70 -0.10 1.25 0.10 1.25 0.20 0 0.55 0.85 0.75 1.90 0.90 4.90 5.65 11.05 10.65 13.75 9.55 5.20 19.25 3.10 26.40 -5.70 1.80 -2.25 2.55 -4.70 5.80 -19.95 0.25 -1.25 0.60 -2.60 0.75 -3 0.20 -0.40 0.40 -1.10 0.45 -1.50 0.20 -1.05 0.60 -2.70 0.75 -3 0.05 -0.15 0.15 -0.45 0.20 -0.75 0.30 -2 1.45 -5.80 1.80 -6.05 0.25 -0.15 0.45 -0.75 0.45 -1.40 0 -0.60 0.15 -1.30 0.35 -1.50 0.20 -0.15 0.40 -0.70 0.45 -1.10 0.05 -0.45 0.30 -1.15 0.50 -1.60 0.20 -0.45 0.40 -1 0.45 -1.20 0.10 -0.25 0.15 -0.45 0.25 -0.50 0.05 -0.10 0.15 -0.50 0.25 -0.90 0.10 -0.40 0.45 -1.40 0.80 -2.25 0.30 -0.80 0.65 -1.80 0.75 -2.15 0.05 -0.40 0.75 -1.95 1.50 -3.50 0.80 -1.60 1.45 -3.20 1.55 -3.60 0.05 -0.40 0.35 -0.80 0.65 -0.90 0.25 -0.10 0.40 -0.35 0.25 -0.60 -0.15 -0.25 0 -0.70 0.35 -1.10 0.35 -0.35 0.70 -1 0.80 -1.40 0.10 -0.40 0.45 -0.90 0.75 -1.10 0.35 -0.20 0.40 -0.40 0.20 -0.40 -0.50 0 1.95 -4.35 3.30 -5.85 0.55 -0.65 0.80 -1.15 0.55 -1.15 -0.25 0 -0.05 -0.25 0.45 -0.55 0.45 -0.30 0.75 -0.70 0.60 -1 -0.20 -0.25 0.05 -0.60 0.45 -0.75 0.45 -0.15 0.65 -0.50 0.50 -0.75 -0.15 -0.25 0.10 -0.60 0.50 -0.75 0.45 -0.15 0.80 -0.60 0.80 -0.90 0 -0.35 0.90 -1.55 1.95 -2.70 1.05 -1.10 1.85 -2.15 1.75 -2.25 -0.15 -0.10 1.60 -1.95 3.85 -4.05 2.25 -2.10 4.15 -3.75 4.25 -3.65 0.15 0.10 0.95 -0.50 1.85 -1.35 2.75 -2.60 9.35 -5.65 9.35 -4.35 0 0.20 -1.95 2.15 -4.30 4.30 -6.30 5.80 -10.20 11.20 -15.20 21.15 -6.40 12.70 -10.90 26.35 -16.25 49.10 -1.95 8.30 -3.25 12.80 -4.50 15.30 -3.05 6.25 -7.90 10.70 -14.30 13.20 -3.55 1.35 -3.55 1.35 -1.10 1.65 1.85 0.25 15.60 0.15 21.70 -0.10 0.50 -0.05 1 -0.65 1.15 -1.40 0.65 -2.60 3.90 -12.90 4.30 -13.40 0.15 -0.25 0.85 -1.95 1.50 -3.75 1.30 -3.75 6.10 -13.55 7.70 -15.75 0.60 -0.80 1.40 -2.10 1.75 -2.85 0.40 -0.80 0.90 -1.40 1.15 -1.40 0.20 0 0.40 -0.30 0.40 -0.65 0 -0.35 0.70 -1.35 1.50 -2.25 0.85 -0.90 1.50 -1.80 1.50 -1.95 0 -0.15 0.50 -0.80 1.15 -1.40 0.60 -0.60 1.70 -1.90 2.50 -2.90 0.75 -1 1.85 -2.10 2.40 -2.40 0.95 -0.50 1 -0.45 0.65 0.65 -0.20 0.60 -0.80 2.15 -1.35 3.40 -0.55 1.25 -1.05 2.35 -1.10 2.50 -0.25 0.95 -0.95 3 -1.50 4.25 -0.35 0.85 -0.90 2.40 -1.15 3.50 -0.30 1.10 -0.90 3.25 -1.35 4.75 -2.30 7.80 -4.05 16.95 -4.55 24 -0.40 5.90 -1.15 5.50 7.60 4 5.85 -1 8 -1.05 4.40 -0.05 -11.45 3.10 -27.15 5.80 -38.10 6.60 -6.95 0.50 -22 0.35 -27.60 -0.30 -0.95 -0.10 -2.85 -0.30 -4.25 -0.45 -1.35 -0.15 -3.25 -0.40 -4.10 -0.55 -0.90 -0.15 -2.30 -0.35 -3.10 -0.45 -1.25 -0.20 -3.10 -0.70 -6.30 -1.60 -0.25 -0.10 -1.30 -0.30 -2.25 -0.50 -3.90 -0.70 -21.35 -8.20 -22.50 -9.65 -0.15 -0.15 -1.05 -0.70 -2 -1.20 -1 -0.50 -3.35 -2.25 -5.25 -3.85 -1.90 -1.65 -3.70 -3 -4 -3 -0.80 0 -3.70 6.65 -6.50 14.75 -0.35 0.90 -0.45 0.85 -1.05 -0.50 -1.20 -2.80 -3.65 -14 -4.20 -19.20 -0.65 -6.75 -0.65 -18.30 0.05 -22.50 2.50 -15.25 6.05 -25.50 12.85 -37.30 1.75 -3.10 5.55 -8.55 6.55 -9.45 0.60 -0.55 1.05 -1.25 1.05 -1.60 0 -0.95 13.15 -13.95 16.40 -16.20 6.85 -4.75 12.50 -8.35 14.10 -9.10 0.95 -0.40 3.10 -1.40 4.70 -2.20 1.65 -0.80 3.35 -1.50 3.85 -1.50 0.50 -0.05 1.20 -0.30 1.55 -0.60 0.35 -0.25 1.55 -0.70 2.65 -0.90 1.10 -0.20 2.45 -0.65 3.05 -1 0.55 -0.40 2.15 -0.85 3.50 -1 1.35 -0.20 2.85 -0.65 3.30 -1.10 0.50 -0.40 1.35 -0.60 1.90 -0.45 0.60 0.15 1.85 -0.05 2.80 -0.45 1.10 -0.45 2.40 -0.60 3.70 -0.40 1.20 0.20 2.25 0.10 2.65 -0.25 0.90 -0.70 14.35 -0.85 14.80 -0.10 0.20 0.30 2.45 0.50 5.55 0.45 3.35 -0.05 6.80 0.25 9.50 0.80 5.40 1.15 15.15 4.40 19.85 6.60 2 0.95 3.75 1.70 3.90 1.70 0.60 0 10.65 6.30 12.75 8 1.25 1 3.15 2.45 4.25 3.15 3.20 2.15 13.05 12.20 16.70 17.10 11.55 15.40 18.10 32.90 18.85 50.30 0.30 7.20 -0.60 11.35 -3.90 17.90 -2.15 4.30 -3.40 6.05 -7.05 9.85 -14.85 15.55 -39.65 32.90 -62.05 43.45 -3.20 1.50 -5.75 2.55 -5.60 2.30z m-63.80 -39.65 c-2.25 -2.10 -4.85 -5.70 -5.10 -7 -0.10 -0.35 -0.60 -1.55 -1.10 -2.65 -0.80 -1.70 -0.95 -3.10 -0.90 -8.70 0.05 -3.75 0.30 -6.80 0.55 -7 0.30 -0.15 0.50 -1.40 0.55 -2.70 0 -1.30 0.20 -2.65 0.50 -3 0.25 -0.35 0.50 -1.45 0.50 -2.50 0.05 -1.05 0.25 -2.15 0.45 -2.50 0.20 -0.35 0.45 -1.35 0.50 -2.30 0.05 -0.95 0.30 -1.85 0.55 -2 0.25 -0.15 0.45 -1.05 0.45 -1.95 0 -0.95 0.20 -1.85 0.45 -2 0.25 -0.20 0.50 -0.95 0.55 -1.75 0 -0.75 0.20 -1.75 0.40 -2.25 0.25 -0.45 0.45 -1.15 0.55 -1.50 0.05 -0.40 0.30 -1.05 0.50 -1.50 0.15 -0.45 0.40 -1.40 0.50 -2.05 0.10 -0.65 0.45 -1.40 0.80 -1.60 0.35 -0.20 0.50 -0.55 0.30 -0.70 -0.55 -0.60 4.75 -15.15 5.80 -15.85 0.30 -0.20 0.35 -0.40 0.15 -0.40 -0.20 0 -0.10 -0.50 0.25 -1.10 0.30 -0.65 0.65 -1.45 0.70 -1.85 0.10 -0.40 0.40 -0.85 0.70 -1.05 0.35 -0.20 0.55 -0.50 0.50 -0.70 -0.15 -0.40 1.10 -3.45 1.50 -3.80 0.15 -0.15 0.60 -1 0.95 -1.85 0.40 -0.90 0.90 -1.65 1.15 -1.65 0.25 0 0.35 -0.20 0.15 -0.45 -0.15 -0.25 0.05 -0.80 0.45 -1.15 0.35 -0.40 0.80 -1.20 1 -1.80 0.20 -0.60 0.65 -1.40 0.95 -1.75 0.35 -0.35 1.15 -1.70 1.85 -3 0.65 -1.30 1.40 -2.35 1.60 -2.35 0.25 0 0.40 -0.30 0.40 -0.65 0 -0.35 0.40 -1.10 0.90 -1.65 0.45 -0.50 1.15 -1.55 1.55 -2.30 1 -1.95 7.20 -9.70 10.45 -13.05 3.55 -3.70 2.90 -4.40 -1.95 -2.05 -1.90 0.95 -3.65 1.70 -3.85 1.70 -0.55 0 -6.60 3.15 -9.05 4.70 -6.75 4.30 -15.75 12.30 -22.15 19.80 -1.30 1.50 -2.70 3.15 -3.15 3.60 -0.40 0.50 -0.75 1 -0.75 1.15 0 0.10 -1 1.65 -2.30 3.45 -1.95 2.85 -7.70 12.55 -7.70 13.10 0 0.10 -0.90 2 -2 4.25 -1.10 2.25 -2 4.30 -2 4.55 0 0.20 -0.45 1.35 -1 2.55 -3.25 7.10 -7.10 24.40 -7.80 35.10 -0.25 4 -0.25 4 2.70 6.45 1.65 1.30 3.20 2.45 3.45 2.50 0.20 0 0.45 -0.45 0.55 -1.05 0.10 -0.65 0.40 -1.15 0.65 -1.15 0.25 0 0.40 -0.40 0.35 -0.85 -0.15 -1.85 0.10 -2.70 0.65 -2.35 0.40 0.25 0.50 0 0.30 -0.85 -0.20 -0.70 0 -1.85 0.40 -2.65 0.40 -0.80 0.75 -1.75 0.75 -2.15 0 -0.40 0.25 -0.55 0.55 -0.35 0.35 0.20 0.50 0.05 0.35 -0.35 -0.35 -0.90 2.95 -7.45 3.70 -7.45 0.30 0 0.40 -0.15 0.25 -0.35 -0.20 -0.15 0 -0.90 0.50 -1.60 1.20 -1.90 5.75 -7.10 6 -6.90 0.10 0.15 -0.80 3.25 -2 6.90 -2.85 8.50 -4.45 17.30 -4.25 22.90 0.15 4.25 0.15 4.25 3.65 6 3.70 1.90 14.85 6.10 15.20 5.75 0.10 -0.10 -0.80 -1.15 -2.05 -2.30z"/>
 </g>
</svg>